<?xml version="1.0" encoding="UTF-8"?>
<svg width="32px" height="24px" viewBox="0 0 32 24" version="1.1" xmlns="http://www.w3.org/2000/svg" xmlns:xlink="http://www.w3.org/1999/xlink">
    <!-- Generator: Sketch 61 (89581) - https://sketch.com -->
    <title>48px-paypal</title>
    <desc>Created with Sketch.</desc>
    <g id="Symbols" stroke="none" stroke-width="1" fill="none" fill-rule="evenodd">
        <g id="Components/Footer/Desktop" transform="translate(-1213.000000, -367.000000)">
            <g id="Payment" transform="translate(1069.000000, 367.000000)">
                <g id="48px-paypal" transform="translate(144.000000, 0.000000)">
                    <rect id="Rectangle" fill="#C4C4C4" x="0" y="0" width="32" height="24" rx="4"></rect>
                    <path d="M14.0111304,10.4428235 C14.1307826,10.4428235 14.2365217,10.5225882 14.2706087,10.6390588 L14.2706087,10.6390588 L14.8187826,12.4962353 L16.112,10.5635294 C16.1627826,10.488 16.2462609,10.4428235 16.336,10.4428235 L16.336,10.4428235 L17.2737391,10.4428235 C17.4045217,10.4428235 17.4817391,10.5917647 17.405913,10.7018824 L17.405913,10.7018824 L14.288,15.2682353 C14.2372174,15.3416471 14.1544348,15.3861176 14.0653913,15.3861176 L14.0653913,15.3861176 L13.1290435,15.3861176 C12.9975652,15.3861176 12.9203478,15.2357647 12.9968696,15.1263529 L12.9968696,15.1263529 L13.968,13.7357647 L12.9356522,10.6609412 C12.8994783,10.5536471 12.978087,10.4428235 13.0893913,10.4428235 L13.0893913,10.4428235 Z M10.0041739,10.3538824 C10.9008696,10.3538824 11.0810435,10.7131765 11.1714783,10.8465882 L11.1714783,10.8465882 L11.2125217,10.5818824 C11.2250435,10.5021176 11.2932174,10.4428235 11.3732174,10.4428235 L11.3732174,10.4428235 L12.306087,10.4428235 C12.4055652,10.4428235 12.4813913,10.5331765 12.466087,10.6341176 L12.466087,10.6341176 L11.9617391,13.8741176 C11.9408696,14.0075294 11.8274783,14.1056471 11.6946087,14.1056471 L11.6946087,14.1056471 L10.8542609,14.1056471 C10.754087,14.1056471 10.6782609,14.0152941 10.6935652,13.9150588 L10.6935652,13.9150588 L10.7353043,13.6517647 C10.7353043,13.6517647 10.2747826,14.1931765 9.44417391,14.1931765 C8.96,14.1931765 8.55373913,14.0512941 8.26921739,13.7117647 C7.95965217,13.3418824 7.83304348,12.8117647 7.92208696,12.2576471 C8.09321739,11.1465882 8.97391304,10.3538824 10.0041739,10.3538824 Z M23.8977391,10.3538824 C24.7944348,10.3538824 24.9746087,10.7131765 25.0650435,10.8465882 L25.0650435,10.8465882 L25.106087,10.5818824 C25.1186087,10.5021176 25.1867826,10.4428235 25.2667826,10.4428235 L25.2667826,10.4428235 L26.1996522,10.4428235 C26.2991304,10.4428235 26.3756522,10.5331765 26.3596522,10.6341176 L26.3596522,10.6341176 L25.8553043,13.8741176 C25.8344348,14.0075294 25.7210435,14.1056471 25.5881739,14.1056471 L25.5881739,14.1056471 L24.7478261,14.1056471 C24.6476522,14.1056471 24.5718261,14.0152941 24.5871304,13.9150588 L24.5871304,13.9150588 L24.6288696,13.6517647 C24.6288696,13.6517647 24.1683478,14.1931765 23.3377391,14.1931765 C22.8535652,14.1931765 22.4473043,14.0512941 22.1627826,13.7117647 C21.8532174,13.3418824 21.7266087,12.8117647 21.8156522,12.2576471 C21.9867826,11.1465882 22.8674783,10.3538824 23.8977391,10.3538824 Z M28.3589565,8.61526943 C28.4591304,8.61526943 28.5349565,8.70564706 28.5196522,8.80588235 L28.5196522,8.80588235 L27.7314783,13.8741176 C27.7106087,14.0075294 27.5972174,14.1056471 27.4643478,14.1056471 L27.4643478,14.1056471 L26.6601739,14.1056471 C26.56,14.1056471 26.4841739,14.0152941 26.4994783,13.9150588 L26.4994783,13.9150588 L27.2987826,8.75364706 C27.3113043,8.67317647 27.3794783,8.61388235 27.4587826,8.61526943 L27.4587826,8.61526943 Z M20.3770435,8.61388235 C21.0288696,8.61388235 21.52,8.78894118 21.7975652,9.11858824 C22.0493913,9.41858824 22.1328696,9.84776471 22.045913,10.3941176 C21.8525217,11.6428235 21.1116522,12.2731765 19.8288696,12.2731765 L19.8288696,12.2731765 L19.2125217,12.2731765 C19.0796522,12.2731765 18.9662609,12.3712941 18.9453913,12.5047059 L18.9453913,12.5047059 L18.722087,13.9418824 C18.7074783,14.0350588 18.6281739,14.1042353 18.5349565,14.1042353 L18.5349565,14.1042353 L17.5353043,14.1042353 C17.4351304,14.1042353 17.3593043,14.0138824 17.3746087,13.9136471 L17.3746087,13.9136471 L18.162087,8.84541176 C18.1829565,8.712 18.2963478,8.61388235 18.4292174,8.61388235 L18.4292174,8.61388235 Z M6.48347826,8.61388235 C7.13530435,8.61388235 7.62573913,8.78894118 7.904,9.11929412 C8.15582609,9.41929412 8.23930435,9.84847059 8.15234783,10.3948235 C7.95895652,11.6435294 7.21808696,12.2738824 5.93530435,12.2738824 L5.93530435,12.2738824 L5.31895652,12.2738824 C5.18608696,12.2738824 5.07269565,12.372 5.05182609,12.5054118 L5.05182609,12.5054118 L4.83895652,13.8727059 C4.81808696,14.0061176 4.70469565,14.1042353 4.57182609,14.1042353 L4.57182609,14.1042353 L3.64173913,14.1042353 C3.54156522,14.1042353 3.46573913,14.0138824 3.48104348,13.9136471 L3.48104348,13.9136471 L4.26852174,8.84541176 C4.2893913,8.712 4.40278261,8.61388235 4.53565217,8.61388235 L4.53565217,8.61388235 Z M10.2267826,11.3576471 C9.69530435,11.3576471 9.2653913,11.7324706 9.18121739,12.2682353 C9.1373913,12.5315294 9.18956522,12.7672941 9.32730435,12.9331765 C9.46643478,13.1004706 9.68278261,13.1887059 9.9533913,13.1887059 C10.4925217,13.1887059 10.9161739,12.8258824 11.005913,12.2851765 C11.0469565,12.0232941 10.9906087,11.7854118 10.8486957,11.6152941 C10.7067826,11.4465882 10.4918261,11.3576471 10.2267826,11.3576471 Z M24.1203478,11.3576471 C23.5888696,11.3576471 23.1589565,11.7324706 23.0747826,12.2682353 C23.0309565,12.5315294 23.0831304,12.7672941 23.2208696,12.9331765 C23.36,13.1004706 23.5763478,13.1887059 23.8469565,13.1887059 C24.386087,13.1887059 24.8090435,12.8258824 24.8994783,12.2851765 C24.9405217,12.0232941 24.8841739,11.7854118 24.7422609,11.6152941 C24.6003478,11.4465882 24.3853913,11.3576471 24.1203478,11.3576471 Z M19.6584014,9.71052142 L19.517913,9.71082353 C19.437913,9.71082353 19.3697391,9.77011765 19.3572174,9.84988235 L19.3572174,9.84988235 L19.1513043,11.1748235 L19.5482134,11.1746133 C20.0303768,11.1716706 20.5024,11.1275294 20.6017391,10.4654118 C20.6406957,10.2162353 20.610087,10.0362353 20.5078261,9.91411765 C20.3213913,9.69317647 19.9457391,9.71082353 19.517913,9.71082353 Z M5.7586087,9.71082353 L5.62365217,9.71082353 C5.54365217,9.71082353 5.47547826,9.77011765 5.46295652,9.84988235 L5.46295652,9.84988235 L5.25704348,11.1748235 L5.65464817,11.1746133 C6.13681159,11.1716706 6.60883478,11.1275294 6.70817391,10.4654118 C6.74713043,10.2162353 6.71582609,10.0362353 6.61356522,9.91411765 C6.44243478,9.71082353 6.10991304,9.71082353 5.7586087,9.71082353 L5.7586087,9.71082353 Z" id="Combined-Shape" fill="#FFFFFF"></path>
                </g>
            </g>
        </g>
    </g>
</svg>