<?xml version="1.0" encoding="UTF-8"?>
<svg width="32px" height="24px" viewBox="0 0 32 24" version="1.1" xmlns="http://www.w3.org/2000/svg" xmlns:xlink="http://www.w3.org/1999/xlink">
    <!-- Generator: Sketch 61 (89581) - https://sketch.com -->
    <title>48px-visa</title>
    <desc>Created with Sketch.</desc>
    <g id="Symbols" stroke="none" stroke-width="1" fill="none" fill-rule="evenodd">
        <g id="Components/Footer/Desktop" transform="translate(-1069.000000, -367.000000)">
            <g id="Payment" transform="translate(1069.000000, 367.000000)">
                <g id="48px-visa">
                    <rect id="Rectangle" fill="#C4C4C4" x="0" y="0" width="32" height="24" rx="4"></rect>
                    <path d="M19.4615652,8.51082353 C20.1655652,8.51082353 20.7290435,8.65764706 21.0886957,8.79458824 L21.0886957,8.79458824 L20.8424348,10.26 C20.3707826,10.0341176 19.901913,9.91411765 19.3203478,9.92329412 C18.6093913,9.92329412 18.2803478,10.224 18.2803478,10.5049412 C18.2761739,10.8211765 18.6650435,11.0301176 19.2994783,11.3428235 C20.3471304,11.8249412 20.8306087,12.4101176 20.8257391,13.1788235 C20.8118261,14.5821176 19.5728696,15.4884706 17.664,15.4884706 C16.8493913,15.48 16.0653913,15.3162353 15.6410435,15.1277647 L15.6410435,15.1277647 L15.8956522,13.6143529 C16.6267826,13.9503529 17.0330435,14.0767059 17.8386087,14.0767059 C18.3610435,14.0767059 18.9210435,13.8698824 18.9252174,13.4167059 C18.9286957,13.1209412 18.6907826,12.9091765 17.984,12.5781176 C17.2953043,12.2548235 16.3826087,11.7127059 16.3930435,10.7414118 C16.4034783,9.42776471 17.6674783,8.51082353 19.4615652,8.51082353 Z M25.744,8.63505882 L27.2146087,15.3903529 L25.5297391,15.3903529 C25.5297391,15.3903529 25.3627826,14.6138824 25.3085217,14.3774118 C25.0766087,14.3774118 23.6298152,14.37525 23.1319307,14.3747096 L22.9829565,14.3745882 C22.912,14.5574118 22.6003478,15.3903529 22.6003478,15.3903529 L22.6003478,15.3903529 L20.6935652,15.3903529 L23.389913,9.19552941 C23.5812174,8.75576471 23.906087,8.63505882 24.3408696,8.63505882 L24.3408696,8.63505882 L25.744,8.63505882 Z M15.6382609,8.62870588 L14.5022609,15.3882353 L12.6873043,15.3882353 L13.8226087,8.62870588 L15.6382609,8.62870588 Z M7.73773913,8.62941176 C8.13217391,8.64423529 8.45078261,8.772 8.56069565,9.19976471 L8.56069565,9.19976471 L9.19721739,12.3063529 L9.38643478,13.2430588 L11.1645217,8.63294118 L13.088,8.63294118 L10.2295652,15.3797647 L8.30817391,15.3818824 L6.69356522,9.51105882 C6.13495652,9.19764706 5.49843478,8.94494118 4.78608696,8.76988235 L4.78608696,8.76988235 L4.80904348,8.62941176 Z M24.4695652,10.4576471 C24.3213913,10.8670588 23.5805217,12.7976471 23.5053913,12.9924706 L23.5053913,12.9924706 L25.0128696,12.9924706 C24.4758261,10.4922353 24.7151304,11.6230588 24.4695652,10.4576471 Z" id="Combined-Shape" fill="#FFFFFF"></path>
                </g>
            </g>
        </g>
    </g>
</svg>